<?xml version="1.0" encoding="utf-8"?>
<!-- Generator: Adobe Illustrator 21.1.0, SVG Export Plug-In . SVG Version: 6.00 Build 0)  -->
<svg version="1.1" id="Layer_1" xmlns="http://www.w3.org/2000/svg" xmlns:xlink="http://www.w3.org/1999/xlink" x="0px" y="0px"
	 viewBox="0 0 854 262" style="enable-background:new 0 0 854 262;" xml:space="preserve">
<style type="text/css">
	.st0{fill:#939598;}
	.st1{fill:#F7941D;}
	.st2{fill:none;stroke:#808285;stroke-width:6.7367;stroke-linecap:round;stroke-linejoin:round;stroke-miterlimit:10;}
	.st3{fill:#FFFFFF;stroke:#808285;stroke-width:5.3893;stroke-miterlimit:10;}
	.st4{fill:#808285;stroke:#808285;stroke-width:3.7725;stroke-miterlimit:10;}
</style>
<g>
	<g>
		<path class="st0" d="M297.2,135.8c-0.3-4.1-1-7.5-2-10.4c-1-2.8-2.4-5.1-4.2-6.9c-1.8-1.8-3.9-3-6.4-3.8c-2.5-0.8-5.3-1.2-8.5-1.2
			c-2.5,0-4.7,0.2-6.8,0.7c-2.1,0.5-3.9,1.2-5.4,2.2c-1.5,1-2.7,2.3-3.5,3.8c-0.8,1.6-1.3,3.5-1.3,5.7c0,2.2,0.4,4,1.2,5.4
			c0.8,1.4,2.1,2.7,3.9,3.8c1.8,1.1,4.1,2.2,6.9,3.2c2.8,1,6.2,2.2,10.3,3.6c3.3,1.1,6.5,2.3,9.7,3.6c3.2,1.3,6.1,2.8,8.6,4.7
			c2.5,1.9,4.6,4.2,6.2,6.8c1.6,2.7,2.4,5.9,2.4,9.8c0,4.3-1,8.1-2.9,11.3c-2,3.2-4.5,5.9-7.7,7.9s-6.9,3.6-10.9,4.6
			c-4.1,1-8.3,1.5-12.5,1.5c-2.3,0-4.7-0.1-7.2-0.4c-2.5-0.3-5.1-0.6-7.5-1c-2.5-0.4-4.8-1-7.1-1.6c-2.2-0.6-4.2-1.2-5.9-1.8
			l-0.7-27.4h6.5c0.3,4.8,1,8.8,2,12c1,3.2,2.5,5.8,4.3,7.8c1.9,2,4.1,3.3,6.8,4.2c2.7,0.8,5.8,1.2,9.4,1.2c2.7,0,5.2-0.2,7.5-0.7
			c2.3-0.5,4.3-1.2,6-2.3c1.7-1,3-2.4,4-4.1c1-1.7,1.5-3.7,1.5-6.1c0-2.1-0.4-3.8-1.1-5.1c-0.8-1.4-2-2.6-3.6-3.6
			c-1.6-1.1-3.7-2.1-6.3-3c-2.6-0.9-5.7-2-9.2-3.3c-3.6-1.3-7-2.6-10.3-3.9c-3.3-1.4-6.2-3-8.7-4.9c-2.5-1.9-4.5-4.2-6-6.9
			c-1.5-2.7-2.3-6-2.3-9.9c0-4.3,0.9-8,2.6-11.1c1.8-3.1,4.1-5.7,7-7.7c2.9-2,6.3-3.5,10.1-4.4c3.8-0.9,7.8-1.4,11.8-1.4
			c2.1,0,4.2,0.1,6.5,0.3c2.3,0.2,4.5,0.5,6.7,0.9c2.2,0.4,4.4,0.8,6.4,1.3c2,0.5,3.9,0.9,5.6,1.4l0.7,25.4H297.2z"/>
		<path class="st0" d="M394.7,189.4c-2.6,0.5-5.1,0.8-7.4,0.9c-2.3,0.1-4.1,0.2-5.4,0.2c-3.3,0-6.1-0.3-8.3-0.8s-3.9-1.3-5.1-2.3
			c-1.3-1-2.2-2.2-2.7-3.7c-0.6-1.4-0.9-3.1-1-4.8h-0.5c-1.8,2.5-3.6,4.5-5.7,6.2c-2,1.7-4.1,3.1-6.3,4.1c-2.2,1-4.5,1.7-6.7,2.2
			c-2.3,0.4-4.6,0.7-6.9,0.7c-3.8,0-7.3-0.5-10.3-1.6c-3-1-5.6-2.5-7.6-4.4c-2.1-1.9-3.6-4.1-4.7-6.7c-1.1-2.6-1.6-5.5-1.6-8.6
			c0-8.7,4.3-15.4,12.9-20c8.6-4.6,21-7,37.1-7.3c0.1-2.8,0.1-5.4,0.1-7.6c0-2.3,0-4.5,0-6.7c0-5.7-1.2-9.7-3.5-12
			c-2.4-2.3-6.1-3.4-11.2-3.4c-3.4,0-6.4,0.4-9.1,1.1c-2.7,0.8-4.9,1.8-6.6,3c1.5,1.4,2.6,3,3.3,4.6c0.7,1.6,1.1,3.2,1.1,4.8
			c0,2.6-0.8,4.8-2.5,6.6c-1.7,1.8-4,2.6-7,2.6c-1.3,0-2.5-0.2-3.7-0.6c-1.2-0.4-2.2-1-3.1-1.8c-0.9-0.8-1.6-1.8-2.1-3.1
			c-0.5-1.2-0.8-2.7-0.8-4.3c0-2.6,0.7-5.1,2.1-7.5c1.4-2.4,3.5-4.6,6.3-6.5c2.8-1.9,6.3-3.4,10.5-4.5c4.2-1.1,9.1-1.7,14.7-1.7
			c4.5,0,8.5,0.4,12,1.3c3.5,0.9,6.4,2.3,8.9,4.4c2.4,2,4.2,4.8,5.5,8.2s1.8,7.6,1.8,12.6c0,1.3,0,3.3,0,6.2c0,2.9-0.1,6-0.1,9.5
			c-0.1,3.5-0.1,7-0.1,10.5c0,3.6,0,6.7,0,9.4c0,2.8,0.1,5.1,0.2,6.9c0.1,1.9,0.4,3.3,0.9,4.4c0.5,1.1,1.3,1.9,2.3,2.4
			c1,0.5,2.4,0.7,4.2,0.7c1.6,0,3.6-0.2,6.2-0.6V189.4z M364.4,150.6c-6.9,0.2-12.4,0.7-16.6,1.6c-4.2,0.8-7.5,2-9.8,3.6
			c-2.3,1.5-3.9,3.4-4.7,5.6c-0.8,2.2-1.2,4.7-1.2,7.5c0,4.9,1,8.6,3.1,11c2,2.4,4.9,3.6,8.4,3.6c1.9,0,4.1-0.4,6.6-1.2
			c2.4-0.8,4.7-2.2,6.8-4c2.1-1.9,3.9-4.3,5.3-7.3c1.4-3,2.1-6.8,2.1-11.2V150.6z"/>
		<path class="st0" d="M430.7,181.9h14.2v7.5h-45.3v-7.5h14.2v-115h-14.2v-7.5h31.1V181.9z"/>
		<path class="st0" d="M500.7,170.6c-1.7,7.4-4.5,12.8-8.4,16.3c-3.9,3.5-9.3,5.2-16.1,5.2c-3.6,0-6.8-0.4-9.7-1.3
			c-2.9-0.9-5.3-2.3-7.3-4.2c-2-1.9-3.6-4.4-4.6-7.4c-1.1-3-1.6-6.6-1.6-10.9v-51.7h-14.2V109h14.2V90.7l17-2.8V109h24.5v7.5h-24.5
			v53.8c0,2.6,0.2,4.7,0.7,6.3c0.5,1.6,1.1,2.9,2,3.9c0.9,0.9,1.9,1.6,3.1,1.9c1.2,0.3,2.5,0.5,4.1,0.5c2,0,3.7-0.3,5.2-0.9
			c1.4-0.6,2.7-1.5,3.8-2.7s2-2.8,2.8-4.6c0.8-1.8,1.5-3.9,2.2-6.3c1.2,0.2,2.4,0.4,3.5,0.8C498.5,169.6,499.6,170,500.7,170.6z"/>
		<path class="st0" d="M576.9,116.6h-13.2V109H599v7.5h-14l-36.4,82.5c-3.8,8.6-7.1,15.7-10,21.4c-2.9,5.6-5.5,10.1-8,13.4
			c-2.5,3.3-4.8,5.6-7.2,6.9s-4.8,2-7.5,2c-2.1,0-4-0.3-5.7-1c-1.7-0.7-3.1-1.5-4.2-2.6c-1.2-1.1-2-2.4-2.6-3.8
			c-0.6-1.4-0.9-2.9-0.9-4.4c0-1.3,0.2-2.6,0.7-3.9c0.4-1.3,1.1-2.4,2-3.3c0.9-1,1.9-1.8,3.2-2.4c1.2-0.6,2.7-0.9,4.3-0.9
			c1.5,0,2.9,0.3,4.1,0.8c1.2,0.5,2.2,1.3,3,2.2c0.8,0.9,1.4,1.9,1.8,3.1c0.4,1.2,0.6,2.4,0.6,3.6c0,0.8-0.1,1.5-0.2,2l0.4,0.1
			c2.5-2.2,5.5-6.9,9-14.1c3.6-7.2,7.9-16.6,13-28.1l-32.9-73.4H497V109h46v7.5h-13.2l23.4,52.4h0.4L576.9,116.6z"/>
		<path class="st1" d="M621,181.9h14.2v7.5h-45.3v-7.5H604v-122h-14.2v-7.5H621V181.9z"/>
		<path class="st1" d="M694.5,116.6h-13.7V109h30.7v72.8h14.2v7.5h-31.1v-12.1h-0.4c-2.8,5-6.2,8.7-10.3,11.1
			c-4.1,2.4-9.4,3.6-15.9,3.6c-9,0-15.7-2.2-20-6.6c-4.4-4.4-6.6-10.7-6.6-19.1v-49.8h-13.7V109h30.7v60.2c0,5.1,1.2,8.8,3.5,11
			c2.4,2.2,5.7,3.3,10.1,3.3c3.1,0,6-0.6,8.7-1.7c2.7-1.2,5.1-3.1,7.2-5.7c2-2.6,3.6-6.1,4.8-10.4c1.2-4.3,1.7-9.5,1.7-15.8V116.6z"
			/>
		<path class="st1" d="M808.3,181.9h15.5v7.5h-44.7v-7.5h9.2L773.2,159l-17.7,22.9h11.1v7.5h-36.2v-7.5h15.2l23-29.9l-23.3-35.4
			h-13.5V109h43.3v7.5h-9.8l15,22.7l17.6-22.7h-11V109h35.7v7.5h-14.7l-22.8,29.7L808.3,181.9z"/>
	</g>
	<g>
		<g>
			<g>
				<path class="st1" d="M58.3,139.3c0.7,2.2,1.7,4.3,2.9,6.2l-22.4,6.8c-3.6,1.1-7.3-0.9-8.4-4.5c-1.1-3.6,0.9-7.3,4.5-8.4
					l22.4-6.8C57.3,134.8,57.6,137,58.3,139.3z"/>
			</g>
			<g>
				<path class="st1" d="M214,91.6c1.1,3.6-0.9,7.3-4.5,8.4l-22.4,6.8c0-2.2-0.3-4.5-1-6.7c-0.7-2.2-1.7-4.3-2.9-6.2l22.4-6.8
					C209.2,86.1,212.9,88.1,214,91.6z"/>
			</g>
			<g>
				<path class="st1" d="M102.6,32.4l6.8,22.4c-2.2,0-4.5,0.3-6.7,1c-2.2,0.7-4.3,1.7-6.2,2.9l-6.8-22.4c-1.1-3.6,0.9-7.3,4.5-8.4
					C97.7,26.8,101.5,28.8,102.6,32.4z"/>
			</g>
			<g>
				<path class="st1" d="M147.9,180.7l6.8,22.4c1.1,3.6-0.9,7.3-4.5,8.4c-3.6,1.1-7.3-0.9-8.4-4.5l-6.8-22.4c2.2,0,4.5-0.3,6.7-1
					C144,183,146.1,182,147.9,180.7z"/>
			</g>
			<g>
				<path class="st1" d="M56.4,77.1c-3.6,3-5.8,7.3-6.3,11.9l-9.8-5.2c-3.3-1.7-4.5-5.8-2.8-9.1c1.8-3.3,5.8-4.5,9.1-2.8L56.4,77.1z
					"/>
			</g>
			<g>
				<path class="st1" d="M207,164.8c-0.9,1.6-2.3,2.8-4,3.3c-1.6,0.5-3.5,0.4-5.1-0.5l-9.8-5.2c3.5-3,5.8-7.3,6.3-11.9l9.8,5.2
					C207.5,157.4,208.7,161.5,207,164.8z"/>
			</g>
			<g>
				<path class="st1" d="M170.1,44.1l-5.2,9.8c-3-3.5-7.3-5.8-11.9-6.3l5.2-9.8c1.7-3.3,5.8-4.5,9.1-2.8
					C170.6,36.7,171.8,40.8,170.1,44.1z"/>
			</g>
			<g>
				<path class="st1" d="M91.5,191.9l-5.2,9.8c-0.9,1.6-2.3,2.8-4,3.3c-1.6,0.5-3.5,0.4-5.1-0.5c-3.3-1.7-4.5-5.8-2.8-9.1l5.2-9.8
					C82.6,189.1,86.8,191.4,91.5,191.9z"/>
			</g>
		</g>
		<g>
			<g>
				
					<rect x="73.4" y="83.6" transform="matrix(0.9563 -0.2924 0.2924 0.9563 -26.6295 32.4003)" class="st2" width="43.5" height="43.5"/>
				
					<rect x="114.9" y="70.9" transform="matrix(0.9563 -0.2924 0.2924 0.9563 -21.0996 43.9941)" class="st2" width="43.5" height="43.5"/>
				
					<rect x="86.1" y="125.1" transform="matrix(0.9563 -0.2924 0.2924 0.9563 -38.2233 37.9303)" class="st2" width="43.5" height="43.5"/>
				
					<rect x="127.6" y="112.4" transform="matrix(0.9563 -0.2924 0.2924 0.9563 -32.6933 49.524)" class="st2" width="43.5" height="43.5"/>
			</g>
			
				<ellipse transform="matrix(0.9563 -0.2924 0.2924 0.9563 -41.2552 46.4921)" class="st3" cx="134.9" cy="161.3" rx="18" ry="18"/>
			<ellipse transform="matrix(0.9563 -0.2924 0.2924 0.9563 -35.1914 29.3684)" class="st3" cx="80.7" cy="132.4" rx="18" ry="18"/>
			<ellipse transform="matrix(0.9563 -0.2924 0.2924 0.9563 -18.0677 35.4322)" class="st3" cx="109.5" cy="78.2" rx="18" ry="18"/>
			<ellipse transform="matrix(0.9563 -0.2924 0.2924 0.9563 -24.1315 52.556)" class="st3" cx="163.8" cy="107" rx="18" ry="18"/>
			
				<ellipse transform="matrix(0.9563 -0.2924 0.2924 0.9563 -12.5377 47.026)" class="st4" cx="151.1" cy="65.5" rx="12.6" ry="12.6"/>
			
				<ellipse transform="matrix(0.9563 -0.2924 0.2924 0.9563 -29.6614 40.9622)" class="st4" cx="122.2" cy="119.7" rx="12.6" ry="12.6"/>
			
				<ellipse transform="matrix(0.9563 -0.2924 0.2924 0.9563 -23.5976 23.8385)" class="st4" cx="68" cy="90.9" rx="12.6" ry="12.6"/>
			
				<ellipse transform="matrix(0.9563 -0.2924 0.2924 0.9563 -46.7852 34.8984)" class="st4" cx="93.4" cy="174" rx="12.6" ry="12.6"/>
			
				<ellipse transform="matrix(0.9563 -0.2924 0.2924 0.9563 -35.7253 58.0859)" class="st4" cx="176.5" cy="148.6" rx="12.6" ry="12.6"/>
		</g>
	</g>
</g>
</svg>
